<?xml version="1.0" standalone="no"?>
<!DOCTYPE svg PUBLIC "-//W3C//DTD SVG 20010904//EN"
 "http://www.w3.org/TR/2001/REC-SVG-20010904/DTD/svg10.dtd">
<svg version="1.0" xmlns="http://www.w3.org/2000/svg"
 width="150px" height="150px" viewBox="0 0 200.000000 200.000000"
 preserveAspectRatio="xMidYMid meet">

<g transform="translate(0.000000,200.000000) scale(0.100000,-0.100000)"
fill="#000000" stroke="none">
<path d="M1155 1511 c-3 -6 -15 -11 -26 -11 -11 0 -23 -10 -28 -22 -5 -13 -21
-34 -35 -48 -15 -13 -32 -44 -38 -67 -10 -43 -35 -68 -54 -55 -6 4 -16 21 -23
38 -24 61 -98 114 -158 114 -26 0 -26 0 -7 -21 10 -11 20 -37 21 -57 9 -134
20 -183 48 -212 15 -16 41 -32 56 -35 22 -5 35 -18 54 -58 13 -29 20 -53 15
-55 -20 -7 -10 -23 10 -17 38 12 50 -16 50 -112 0 -99 7 -113 55 -113 64 0
104 90 59 134 -17 17 -74 22 -74 6 0 -5 6 -7 14 -4 21 8 46 -24 46 -60 0 -38
-15 -56 -47 -56 -22 0 -22 3 -25 108 l-3 107 -27 3 c-23 3 -29 10 -34 39 -6
31 -3 40 16 55 12 10 28 18 36 18 20 0 84 60 97 89 5 14 13 64 16 111 5 74 9
86 28 96 15 7 19 14 12 21 -7 7 -5 14 6 23 21 17 19 40 -4 40 -11 0 -26 3 -34
6 -8 3 -18 1 -22 -5z m8 -57 c13 -5 13 -9 2 -32 -8 -15 -16 -35 -19 -45 -7
-23 -26 -13 -26 13 0 11 -6 25 -14 32 -12 11 -11 15 8 25 25 14 29 15 49 7z
m-292 -37 c28 -19 78 -87 79 -107 0 -3 -14 -10 -32 -15 -17 -6 -34 -16 -36
-23 -3 -11 0 -12 17 -2 12 6 41 13 64 16 62 7 65 9 77 56 20 74 48 89 67 38 6
-16 18 -30 27 -30 22 0 22 -80 0 -127 -17 -35 -77 -83 -103 -83 -8 0 -25 -10
-38 -22 -22 -20 -23 -21 -23 -2 0 14 -13 23 -47 34 -34 11 -53 24 -65 46 -17
29 -29 109 -29 184 0 19 -5 40 -11 47 -18 22 15 16 53 -10z"/>
<path d="M1074 1259 c-23 -39 -71 -69 -82 -52 -4 5 -20 12 -37 15 -16 3 -38 9
-49 13 -14 6 -18 5 -14 -5 2 -8 21 -18 42 -24 21 -6 39 -15 40 -21 2 -15 37
-7 65 13 34 25 64 67 59 83 -2 7 -13 -2 -24 -22z"/>
<path d="M1365 1000 c-3 -5 -1 -10 4 -10 14 0 15 -165 1 -191 -9 -16 -7 -19
13 -19 23 0 25 4 25 50 0 55 14 80 44 80 26 0 20 -31 -8 -45 -22 -11 -22 -11
-3 -48 19 -36 50 -49 64 -27 3 6 -1 10 -9 10 -8 0 -20 9 -27 21 -9 17 -7 24
10 40 24 22 26 40 9 57 -17 17 -48 15 -70 -5 -17 -15 -18 -14 -18 40 0 43 -4
57 -14 57 -8 0 -18 -4 -21 -10z"/>
<path d="M520 973 c1 -24 2 -25 11 -10 7 11 22 17 49 17 22 0 40 -2 40 -5 0
-2 -25 -45 -55 -95 -30 -50 -55 -93 -55 -95 0 -3 36 -5 80 -5 79 0 80 0 80 25
0 27 -15 34 -24 10 -3 -10 -19 -15 -46 -15 -22 0 -40 3 -40 6 0 3 23 43 50 89
28 46 50 88 50 94 0 7 -25 11 -70 11 -70 0 -70 0 -70 -27z"/>
<path d="M710 910 c-12 -12 -20 -33 -20 -55 0 -64 65 -97 115 -59 19 15 18 15
-18 9 -46 -9 -67 6 -67 47 0 57 32 86 60 53 16 -19 -3 -45 -33 -45 -16 0 -18
-3 -10 -11 16 -16 60 -3 73 21 17 32 -4 60 -45 60 -22 0 -43 -8 -55 -20z"/>
<path d="M845 920 c-3 -5 -1 -10 4 -10 6 0 11 -18 11 -41 0 -22 5 -49 10 -60
12 -22 59 -26 78 -7 9 9 12 6 12 -16 0 -39 -17 -66 -41 -66 -18 0 -21 5 -17
30 5 32 -1 37 -20 18 -37 -37 18 -85 66 -57 32 18 40 43 41 142 1 69 -1 77
-18 77 -16 0 -18 -5 -14 -39 7 -49 -11 -83 -40 -79 -19 3 -22 10 -25 61 -3 48
-6 57 -22 57 -10 0 -22 -4 -25 -10z"/>
<path d="M1221 904 c-12 -15 -21 -37 -21 -49 0 -58 70 -95 116 -60 18 14 16
15 -23 9 -36 -5 -43 -3 -53 16 -17 31 -4 87 21 95 25 8 42 -6 37 -31 -2 -12
-13 -20 -31 -22 -32 -4 -26 -22 7 -22 25 0 56 28 56 51 0 46 -77 54 -109 13z"/>
</g>
</svg>
